<svg width="37" height="37" viewBox="0 0 37 37" fill="none" xmlns="http://www.w3.org/2000/svg">
<g id="Group 6254">
<path id="Ellipse 316" d="M36.293 18.1426C36.293 28.0837 28.2341 36.1426 18.293 36.1426C8.35184 36.1426 0.292969 28.0837 0.292969 18.1426C0.292969 8.20145 8.35184 0.142578 18.293 0.142578C28.2341 0.142578 36.293 8.20145 36.293 18.1426Z" fill="#B400FF" fill-opacity="0.2"/>
<g id="device_reset">
<mask id="mask0_5372_17599" style="mask-type:alpha" maskUnits="userSpaceOnUse" x="9" y="8" width="20" height="20">
<rect id="Bounding box" x="9" y="8" width="20" height="20" fill="#D9D9D9"/>
</mask>
<g mask="url(#mask0_5372_17599)">
<path id="share_windows" d="M14.5556 20.6667V15.3333C14.5556 14.8444 14.7296 14.4259 15.0778 14.0778C15.4259 13.7296 15.8444 13.5556 16.3333 13.5556H23.5778L21.2889 11.2667L22.5556 10L27 14.4444L22.5556 18.8889L21.2889 17.6444L23.5778 15.3333H16.3333V20.6667H14.5556ZM12.7778 26C12.2889 26 11.8704 25.8259 11.5222 25.4778C11.1741 25.1296 11 24.7111 11 24.2222V10.8889H12.7778V24.2222H23.4444V20.6667H25.2222V24.2222C25.2222 24.7111 25.0481 25.1296 24.7 25.4778C24.3519 25.8259 23.9333 26 23.4444 26H12.7778Z" fill="#B400FF"/>
</g>
</g>
</g>
</svg>
