<svg width="37" height="37" viewBox="0 0 37 37" fill="none" xmlns="http://www.w3.org/2000/svg">
<g id="Group 6254">
<path id="Ellipse 316" d="M36.25 18.1426C36.25 28.0837 28.1911 36.1426 18.25 36.1426C8.30887 36.1426 0.25 28.0837 0.25 18.1426C0.25 8.20145 8.30887 0.142578 18.25 0.142578C28.1911 0.142578 36.25 8.20145 36.25 18.1426Z" fill="#26B769" fill-opacity="0.16"/>
<g id="device_reset">
<mask id="mask0_5372_17589" style="mask-type:alpha" maskUnits="userSpaceOnUse" x="8" y="8" width="21" height="21">
<rect id="Bounding box" x="8.25" y="8.14258" width="20" height="20" fill="#D9D9D9"/>
</mask>
<g mask="url(#mask0_5372_17589)">
<path id="check_circle" d="M16.85 22.7426L23.9 15.6926L22.5 14.2926L16.85 19.9426L14 17.0926L12.6 18.4926L16.85 22.7426ZM18.25 28.1426C16.8667 28.1426 15.5667 27.8801 14.35 27.3551C13.1333 26.8301 12.075 26.1176 11.175 25.2176C10.275 24.3176 9.5625 23.2592 9.0375 22.0426C8.5125 20.8259 8.25 19.5259 8.25 18.1426C8.25 16.7592 8.5125 15.4592 9.0375 14.2426C9.5625 13.0259 10.275 11.9676 11.175 11.0676C12.075 10.1676 13.1333 9.45508 14.35 8.93008C15.5667 8.40508 16.8667 8.14258 18.25 8.14258C19.6333 8.14258 20.9333 8.40508 22.15 8.93008C23.3667 9.45508 24.425 10.1676 25.325 11.0676C26.225 11.9676 26.9375 13.0259 27.4625 14.2426C27.9875 15.4592 28.25 16.7592 28.25 18.1426C28.25 19.5259 27.9875 20.8259 27.4625 22.0426C26.9375 23.2592 26.225 24.3176 25.325 25.2176C24.425 26.1176 23.3667 26.8301 22.15 27.3551C20.9333 27.8801 19.6333 28.1426 18.25 28.1426ZM18.25 26.1426C20.4833 26.1426 22.375 25.3676 23.925 23.8176C25.475 22.2676 26.25 20.3759 26.25 18.1426C26.25 15.9092 25.475 14.0176 23.925 12.4676C22.375 10.9176 20.4833 10.1426 18.25 10.1426C16.0167 10.1426 14.125 10.9176 12.575 12.4676C11.025 14.0176 10.25 15.9092 10.25 18.1426C10.25 20.3759 11.025 22.2676 12.575 23.8176C14.125 25.3676 16.0167 26.1426 18.25 26.1426Z" fill="#40A133"/>
</g>
</g>
</g>
</svg>
