<svg width="37" height="37" viewBox="0 0 37 37" fill="none" xmlns="http://www.w3.org/2000/svg">
<g id="Group 6254">
<path id="Ellipse 316" d="M36.4102 18.1426C36.4102 28.0837 28.3513 36.1426 18.4102 36.1426C8.46903 36.1426 0.410156 28.0837 0.410156 18.1426C0.410156 8.20145 8.46903 0.142578 18.4102 0.142578C28.3513 0.142578 36.4102 8.20145 36.4102 18.1426Z" fill="#FF9E0D" fill-opacity="0.2"/>
<g id="device_reset">
<mask id="mask0_5372_17579" style="mask-type:alpha" maskUnits="userSpaceOnUse" x="8" y="8" width="21" height="21">
<rect id="Bounding box" x="8.41016" y="8.14258" width="20" height="20" fill="#D9D9D9"/>
</mask>
<g mask="url(#mask0_5372_17579)">
<path id="device_reset_2" d="M18.4102 28.1426C15.8546 28.1426 13.6277 27.2954 11.7296 25.6009C9.83145 23.9065 8.74349 21.7907 8.46571 19.2537H10.7435C11.0027 21.1796 11.8592 22.7722 13.3129 24.0315C14.7666 25.2907 16.4657 25.9204 18.4102 25.9204C20.5768 25.9204 22.4148 25.1657 23.924 23.6565C25.4333 22.1472 26.1879 20.3092 26.1879 18.1426C26.1879 15.9759 25.4333 14.1379 23.924 12.6287C22.4148 11.1194 20.5768 10.3648 18.4102 10.3648C17.1324 10.3648 15.9379 10.6611 14.8268 11.2537C13.7157 11.8463 12.7805 12.6611 12.0213 13.6981H15.0768V15.9204H8.41016V9.25369H10.6324V11.8648C11.5768 10.6796 12.7296 9.76295 14.0907 9.1148C15.4518 8.46665 16.8916 8.14258 18.4102 8.14258C19.799 8.14258 21.1 8.40647 22.3129 8.93424C23.5259 9.46202 24.5815 10.175 25.4796 11.0731C26.3777 11.9713 27.0907 13.0268 27.6185 14.2398C28.1463 15.4528 28.4102 16.7537 28.4102 18.1426C28.4102 19.5315 28.1463 20.8324 27.6185 22.0454C27.0907 23.2583 26.3777 24.3139 25.4796 25.212C24.5815 26.1102 23.5259 26.8231 22.3129 27.3509C21.1 27.8787 19.799 28.1426 18.4102 28.1426ZM21.5213 22.8092L17.299 18.587V12.587H19.5213V17.6981L23.0768 21.2537L21.5213 22.8092Z" fill="#FF9E0D"/>
</g>
</g>
</g>
</svg>
