<svg width="37" height="37" viewBox="0 0 37 37" fill="none" xmlns="http://www.w3.org/2000/svg">
<g id="Group 6254">
<path id="Ellipse 316" d="M36.1699 18.1426C36.1699 28.0837 28.111 36.1426 18.1699 36.1426C8.2288 36.1426 0.169922 28.0837 0.169922 18.1426C0.169922 8.20145 8.2288 0.142578 18.1699 0.142578C28.111 0.142578 36.1699 8.20145 36.1699 18.1426Z" fill="#2DB1EA" fill-opacity="0.2"/>
<g id="device_reset">
<mask id="mask0_5372_17609" style="mask-type:alpha" maskUnits="userSpaceOnUse" x="8" y="8" width="21" height="21">
<rect id="Bounding box" x="8.16992" y="8.14258" width="20" height="20" fill="#D9D9D9"/>
</mask>
<g mask="url(#mask0_5372_17609)">
<path id="new_releases" d="M15.079 27.3092L13.3517 24.3886L10.079 23.6585L10.3972 20.2815L8.16992 17.7259L10.3972 15.1704L10.079 11.7934L13.3517 11.0632L15.079 8.14258L18.1699 9.46599L21.2608 8.14258L22.9881 11.0632L26.2608 11.7934L25.9426 15.1704L28.1699 17.7259L25.9426 20.2815L26.2608 23.6585L22.9881 24.3886L21.2608 27.3092L18.1699 25.9858L15.079 27.3092ZM15.8517 24.9819L18.1699 23.9779L20.5336 24.9819L21.8063 22.7914L24.3063 22.1981L24.079 19.6426L25.7608 17.7259L24.079 15.7636L24.3063 13.2081L21.8063 12.6604L20.4881 10.47L18.1699 11.4739L15.8063 10.47L14.5336 12.6604L12.0336 13.2081L12.2608 15.7636L10.579 17.7259L12.2608 19.6426L12.0336 22.2438L14.5336 22.7914L15.8517 24.9819ZM17.2154 20.966L22.3517 15.8092L21.079 14.4858L17.2154 18.3648L15.2608 16.4481L13.9881 17.7259L17.2154 20.966Z" fill="#2DB1EA"/>
</g>
</g>
</g>
</svg>
