<svg width="37" height="37" viewBox="0 0 37 37" fill="none" xmlns="http://www.w3.org/2000/svg">
<path d="M36.5 18.6681C36.5 28.6092 28.4411 36.6681 18.5 36.6681C8.55888 36.6681 0.5 28.6092 0.5 18.6681C0.5 8.72697 8.55888 0.668091 18.5 0.668091C28.4411 0.668091 36.5 8.72697 36.5 18.6681Z" fill="#FFD4D0" fill-opacity="0.79"/>
<mask id="mask0_7827_25161" style="mask-type:alpha" maskUnits="userSpaceOnUse" x="4" y="4" width="29" height="30">
<rect x="4.1001" y="4.26807" width="28.8" height="28.8" fill="#D9D9D9"/>
</mask>
<g mask="url(#mask0_7827_25161)">
<path d="M13.9639 24.9681L18.4999 20.4321L23.0359 24.9681L24.7999 23.2041L20.2639 18.6681L24.7999 14.1321L23.0359 12.3681L18.4999 16.9041L13.9639 12.3681L12.1999 14.1321L16.7359 18.6681L12.1999 23.2041L13.9639 24.9681ZM18.4999 31.2681C16.7569 31.2681 15.1189 30.9374 13.5859 30.2759C12.0529 29.6144 10.7194 28.7166 9.5854 27.5826C8.4514 26.4486 7.55365 25.1151 6.89215 23.5821C6.23065 22.0491 5.8999 20.4111 5.8999 18.6681C5.8999 16.9251 6.23065 15.2871 6.89215 13.7541C7.55365 12.2211 8.4514 10.8876 9.5854 9.75362C10.7194 8.61962 12.0529 7.72187 13.5859 7.06037C15.1189 6.39887 16.7569 6.06812 18.4999 6.06812C20.2429 6.06812 21.8809 6.39887 23.4139 7.06037C24.9469 7.72187 26.2804 8.61962 27.4144 9.75362C28.5484 10.8876 29.4462 12.2211 30.1077 13.7541C30.7692 15.2871 31.0999 16.9251 31.0999 18.6681C31.0999 20.4111 30.7692 22.0491 30.1077 23.5821C29.4462 25.1151 28.5484 26.4486 27.4144 27.5826C26.2804 28.7166 24.9469 29.6144 23.4139 30.2759C21.8809 30.9374 20.2429 31.2681 18.4999 31.2681ZM18.4999 28.7481C21.3139 28.7481 23.6974 27.7716 25.6504 25.8186C27.6034 23.8656 28.5799 21.4821 28.5799 18.6681C28.5799 15.8541 27.6034 13.4706 25.6504 11.5176C23.6974 9.56462 21.3139 8.58812 18.4999 8.58812C15.6859 8.58812 13.3024 9.56462 11.3494 11.5176C9.3964 13.4706 8.4199 15.8541 8.4199 18.6681C8.4199 21.4821 9.3964 23.8656 11.3494 25.8186C13.3024 27.7716 15.6859 28.7481 18.4999 28.7481Z" fill="#FC4E40"/>
</g>
</svg>
