<svg width="150" height="150" viewBox="0 0 150 150" fill="none" xmlns="http://www.w3.org/2000/svg">
<g id="Corupt File 1">
<g id="Corupt File">
<path id="Vector" d="M112.5 31.25L106.25 40.625L109.375 50L115.625 40.625H121.875V134.375H40.625L15.625 109.375V90.625L25 81.25H37.5V71.875L28.125 75L21.875 68.75L15.625 71.875V9.375C15.625 7.7174 16.2835 6.12769 17.4556 4.95558C18.6277 3.78348 20.2174 3.125 21.875 3.125H115.625C117.283 3.125 118.872 3.78348 120.044 4.95558C121.217 6.12769 121.875 7.7174 121.875 9.375V18.75L112.5 25V31.25Z" fill="url(#paint0_linear_3_39210)"/>
<path id="Vector_2" d="M40.625 115.625V134.375L15.625 109.375H34.375C36.0326 109.375 37.6223 110.033 38.7944 111.206C39.9665 112.378 40.625 113.967 40.625 115.625Z" fill="#6CC361"/>
<path id="Vector_3" d="M112.946 146.609C125.028 146.609 134.821 136.816 134.821 124.734C134.821 112.653 125.028 102.859 112.946 102.859C100.865 102.859 91.0713 112.653 91.0713 124.734C91.0713 136.816 100.865 146.609 112.946 146.609Z" fill="url(#paint1_linear_3_39210)"/>
<g id="currency_rupee">
<mask id="mask0_3_39210" style="mask-type:alpha" maskUnits="userSpaceOnUse" x="98" y="112" width="30" height="30">
<rect id="Bounding box" x="98.5723" y="112.5" width="28.9286" height="28.9286" fill="#D9D9D9"/>
</mask>
<g mask="url(#mask0_3_39210)">
<path id="currency_rupee_2" d="M115.116 137.814L107.01 129.376V126.965H111.229C112.294 126.965 113.213 126.619 113.986 125.926C114.759 125.233 115.227 124.374 115.387 123.349H105.805V120.939H115.026C114.684 120.235 114.177 119.658 113.504 119.206C112.831 118.754 112.073 118.528 111.229 118.528H105.805V116.117H120.269V118.528H116.352C116.633 118.869 116.884 119.241 117.105 119.643C117.326 120.045 117.497 120.477 117.617 120.939H120.269V123.349H117.828C117.667 125.057 116.964 126.488 115.719 127.643C114.473 128.799 112.977 129.376 111.229 129.376H110.355L118.461 137.814H115.116Z" fill="white" stroke="white" stroke-width="1.07143"/>
</g>
</g>
<path id="Vector_4" d="M57.1573 49.0909C57.7458 49.6794 58.5439 50.0099 59.3761 50.0099C60.2083 50.0099 61.0064 49.6794 61.5948 49.0909C62.1833 48.5025 62.5139 47.7044 62.5139 46.8722C62.5139 46.04 62.1833 45.2419 61.5948 44.6534L57.5323 40.6222L61.5948 36.5909C61.8862 36.2995 62.1173 35.9536 62.275 35.5729C62.4327 35.1922 62.5139 34.7842 62.5139 34.3722C62.5139 33.9601 62.4327 33.5521 62.275 33.1714C62.1173 32.7907 61.8862 32.4448 61.5948 32.1534C61.3034 31.862 60.9575 31.6309 60.5768 31.4732C60.1961 31.3155 59.7881 31.2344 59.3761 31.2344C58.964 31.2344 58.556 31.3155 58.1753 31.4732C57.7946 31.6309 57.4487 31.862 57.1573 32.1534L53.1261 36.2159L49.0948 32.1534C48.5064 31.565 47.7083 31.2344 46.8761 31.2344C46.0439 31.2344 45.2458 31.565 44.6573 32.1534C44.0689 32.7419 43.7383 33.54 43.7383 34.3722C43.7383 35.2044 44.0689 36.0025 44.6573 36.5909L48.7198 40.6222L44.6573 44.6534C44.0689 45.2419 43.7383 46.04 43.7383 46.8722C43.7383 47.7044 44.0689 48.5025 44.6573 49.0909C45.2458 49.6794 46.0439 50.0099 46.8761 50.0099C47.7083 50.0099 48.5064 49.6794 49.0948 49.0909L53.1261 45.0284L57.1573 49.0909Z" fill="#40A133"/>
<path id="Vector_5" d="M88.7813 40.6222L92.8438 36.5909C93.1352 36.2995 93.3663 35.9536 93.524 35.5729C93.6817 35.1922 93.7629 34.7842 93.7629 34.3722C93.7629 33.9601 93.6817 33.5521 93.524 33.1714C93.3663 32.7907 93.1352 32.4448 92.8438 32.1534C92.5525 31.862 92.2066 31.6309 91.8259 31.4732C91.4452 31.3155 91.0371 31.2344 90.6251 31.2344C90.213 31.2344 89.805 31.3155 89.4243 31.4732C89.0436 31.6309 88.6977 31.862 88.4063 32.1534L84.3751 36.2159L80.3438 32.1534C79.7554 31.565 78.9573 31.2344 78.1251 31.2344C77.2929 31.2344 76.4948 31.565 75.9063 32.1534C75.3179 32.7419 74.9873 33.54 74.9873 34.3722C74.9873 35.2044 75.3179 36.0025 75.9063 36.5909L79.9688 40.6222L75.9063 44.6534C75.615 44.9448 75.3838 45.2907 75.2262 45.6714C75.0685 46.0521 74.9873 46.4601 74.9873 46.8722C74.9873 47.7044 75.3179 48.5025 75.9063 49.0909C76.4948 49.6794 77.2929 50.0099 78.1251 50.0099C78.5371 50.0099 78.9452 49.9288 79.3259 49.7711C79.7066 49.6134 80.0525 49.3823 80.3438 49.0909L84.3751 45.0284L88.4063 49.0909C88.9948 49.6794 89.7929 50.0099 90.6251 50.0099C91.4573 50.0099 92.2554 49.6794 92.8438 49.0909C93.4323 48.5025 93.7629 47.7044 93.7629 46.8722C93.7629 46.04 93.4323 45.2419 92.8438 44.6534L88.7813 40.6222Z" fill="#40A133"/>
<path id="Vector_6" d="M51.9698 68.641C62.7418 72.953 74.7603 72.953 85.5323 68.641C85.914 68.4892 86.262 68.2636 86.5565 67.9773C86.851 67.691 87.0862 67.3494 87.2487 66.9722C87.4112 66.595 87.4978 66.1894 87.5036 65.7787C87.5094 65.368 87.4342 64.9602 87.2823 64.5785C86.9757 63.8077 86.3754 63.1903 85.6135 62.8621C85.2363 62.6996 84.8307 62.613 84.42 62.6073C84.0093 62.6015 83.6015 62.6767 83.2198 62.8285C73.9384 66.5783 63.5637 66.5783 54.2823 62.8285C53.9007 62.6763 53.4928 62.6008 53.082 62.6064C52.6712 62.612 52.2655 62.6985 51.8882 62.8611C51.5109 63.0236 51.1693 63.259 50.883 63.5537C50.5967 63.8484 50.3714 64.1966 50.2198 64.5785C50.0676 64.9601 49.9921 65.368 49.9977 65.7788C50.0033 66.1896 50.0899 66.5953 50.2524 66.9727C50.4149 67.35 50.6503 67.6916 50.945 67.9778C51.2397 68.2641 51.588 68.4895 51.9698 68.641Z" fill="#40A133"/>
</g>
</g>
<defs>
<linearGradient id="paint0_linear_3_39210" x1="68.75" y1="134.375" x2="68.75" y2="3.125" gradientUnits="userSpaceOnUse">
<stop stop-color="#40A133" stop-opacity="0.35"/>
<stop offset="1" stop-color="#E1FEDD"/>
</linearGradient>
<linearGradient id="paint1_linear_3_39210" x1="112.946" y1="146.609" x2="112.946" y2="102.859" gradientUnits="userSpaceOnUse">
<stop stop-color="#FE9661"/>
<stop offset="1" stop-color="#FFB369"/>
</linearGradient>
</defs>
</svg>
