<svg width="181" height="181" viewBox="0 0 181 181" fill="none" xmlns="http://www.w3.org/2000/svg">
<path d="M49.0202 22.625H131.979C133.979 22.625 135.897 23.4196 137.311 24.8339C138.726 26.2482 139.52 28.1665 139.52 30.1667V45.25H41.4785V30.1667C41.4785 28.1665 42.2731 26.2482 43.6874 24.8339C45.1018 23.4196 47.02 22.625 49.0202 22.625Z" fill="url(#paint0_linear_3_38781)"/>
<path d="M41.4785 45.25H139.52V150.833C139.52 152.834 138.726 154.752 137.311 156.166C135.897 157.58 133.979 158.375 131.979 158.375H49.0202C47.02 158.375 45.1018 157.58 43.6874 156.166C42.2731 154.752 41.4785 152.834 41.4785 150.833V45.25Z" fill="url(#paint1_linear_3_38781)"/>
<path d="M3.77051 67.875H41.4788V150.833H11.3122C9.312 150.833 7.39375 150.039 5.97941 148.624C4.56507 147.21 3.77051 145.292 3.77051 143.292V67.875Z" fill="url(#paint2_linear_3_38781)"/>
<path d="M11.3122 52.7891H41.4788V67.8724H3.77051V60.3307C3.77051 58.3306 4.56507 56.4123 5.97941 54.998C7.39375 53.5836 9.312 52.7891 11.3122 52.7891Z" fill="url(#paint3_linear_3_38781)"/>
<path d="M169.687 150.836H139.52V67.8776H177.229V143.294C177.229 145.294 176.434 147.213 175.02 148.627C173.605 150.041 171.687 150.836 169.687 150.836Z" fill="url(#paint4_linear_3_38781)"/>
<path d="M177.229 67.875H139.52V52.7917L169.687 52.7917C171.687 52.7917 173.605 53.5862 175.02 55.0006C176.434 56.4149 177.229 58.3332 177.229 60.3333V67.875Z" fill="url(#paint5_linear_3_38781)"/>
<path d="M41.4788 90.5026H18.8538C17.8538 90.5026 16.8946 90.1053 16.1875 89.3982C15.4803 88.691 15.083 87.7319 15.083 86.7318C15.083 85.7317 15.4803 84.7726 16.1875 84.0654C16.8946 83.3582 17.8538 82.9609 18.8538 82.9609H41.4788V90.5026Z" fill="#B4CDE1"/>
<path d="M41.4788 109.354H18.8538C17.8538 109.354 16.8946 108.957 16.1875 108.25C15.4803 107.543 15.083 106.583 15.083 105.583C15.083 104.583 15.4803 103.624 16.1875 102.917C16.8946 102.21 17.8538 101.812 18.8538 101.812H41.4788V109.354Z" fill="#B4CDE1"/>
<path d="M41.4788 128.206H18.8538C17.8538 128.206 16.8946 127.808 16.1875 127.101C15.4803 126.394 15.083 125.435 15.083 124.435C15.083 123.435 15.4803 122.476 16.1875 121.769C16.8946 121.061 17.8538 120.664 18.8538 120.664H41.4788V128.206Z" fill="#B4CDE1"/>
<path d="M139.521 90.5026H162.146C163.146 90.5026 164.105 90.1053 164.812 89.3982C165.519 88.691 165.916 87.7319 165.916 86.7318C165.916 85.7317 165.519 84.7726 164.812 84.0654C164.105 83.3582 163.146 82.9609 162.146 82.9609H139.521V90.5026Z" fill="#B4CDE1"/>
<path d="M139.521 109.354H162.146C163.146 109.354 164.105 108.957 164.812 108.25C165.519 107.543 165.916 106.583 165.916 105.583C165.916 104.583 165.519 103.624 164.812 102.917C164.105 102.21 163.146 101.812 162.146 101.812H139.521V109.354Z" fill="#B4CDE1"/>
<path d="M139.521 128.206H162.146C163.146 128.206 164.105 127.808 164.812 127.101C165.519 126.394 165.916 125.435 165.916 124.435C165.916 123.435 165.519 122.476 164.812 121.769C164.105 121.061 163.146 120.664 162.146 120.664H139.521V128.206Z" fill="#B4CDE1"/>
<path d="M71.646 80.7307L76.5103 85.6328C76.8627 85.9823 77.2805 86.2588 77.74 86.4465C78.1994 86.6341 78.6914 86.7292 79.1876 86.7264C79.9366 86.7307 80.6699 86.5119 81.2941 86.0979C81.9182 85.6838 82.4049 85.0933 82.6921 84.4016C82.9793 83.7098 83.054 82.9482 82.9067 82.2139C82.7594 81.4795 82.3967 80.8057 81.8649 80.2782L76.9628 75.4139L81.8649 70.5495C82.575 69.8394 82.9739 68.8764 82.9739 67.8722C82.9739 66.868 82.575 65.905 81.8649 65.1949C81.1549 64.4848 80.1918 64.0859 79.1876 64.0859C78.1834 64.0859 77.2204 64.4848 76.5103 65.1949L71.646 70.097L66.7816 65.1949C66.43 64.8433 66.0126 64.5644 65.5532 64.3741C65.0939 64.1839 64.6015 64.0859 64.1043 64.0859C63.6071 64.0859 63.1147 64.1839 62.6554 64.3741C62.196 64.5644 61.7786 64.8433 61.427 65.1949C61.0754 65.5465 60.7965 65.9639 60.6062 66.4233C60.416 66.8826 60.318 67.375 60.318 67.8722C60.318 68.3694 60.416 68.8618 60.6062 69.3211C60.7965 69.7805 61.0754 70.1979 61.427 70.5495L66.3291 75.4139L61.427 80.2782C60.8952 80.8057 60.5325 81.4795 60.3852 82.2139C60.2379 82.9482 60.3126 83.7098 60.5998 84.4016C60.887 85.0933 61.3737 85.6838 61.9979 86.0979C62.622 86.5119 63.3553 86.7307 64.1043 86.7264C66.1782 86.7264 66.7062 85.7082 71.646 80.7307Z" fill="#40A133"/>
<path d="M114.671 75.4139L119.573 70.5495C120.283 69.8394 120.682 68.8764 120.682 67.8722C120.682 66.868 120.283 65.905 119.573 65.1949C118.863 64.4848 117.9 64.0859 116.896 64.0859C115.892 64.0859 114.929 64.4848 114.219 65.1949L109.354 70.097L104.49 65.1949C103.78 64.4848 102.817 64.0859 101.813 64.0859C100.808 64.0859 99.8454 64.4848 99.1353 65.1949C98.4253 65.905 98.0264 66.868 98.0264 67.8722C98.0264 68.8764 98.4253 69.8394 99.1353 70.5495L104.037 75.4139L99.1353 80.2782C98.4253 80.9883 98.0264 81.9514 98.0264 82.9555C98.0264 83.9597 98.4253 84.9228 99.1353 85.6328C99.8454 86.3429 100.808 86.7418 101.813 86.7418C102.817 86.7418 103.78 86.3429 104.49 85.6328L109.354 80.7307L114.219 85.6328C114.929 86.3429 115.892 86.7418 116.896 86.7418C117.9 86.7418 118.863 86.3429 119.573 85.6328C120.283 84.9228 120.682 83.9597 120.682 82.9555C120.682 81.9514 120.283 80.9883 119.573 80.2782L114.671 75.4139Z" fill="#40A133"/>
<path d="M114.878 109.571C115.34 109.323 115.746 108.981 116.068 108.567C116.391 108.154 116.624 107.677 116.752 107.169C116.88 106.66 116.901 106.13 116.812 105.613C116.724 105.095 116.529 104.602 116.239 104.165C115.949 103.728 115.571 103.356 115.129 103.073C114.687 102.79 114.191 102.602 113.673 102.522C113.154 102.441 112.625 102.47 112.118 102.606C111.611 102.742 111.139 102.982 110.73 103.311C104.643 107.366 97.4927 109.53 90.1789 109.53C82.865 109.53 75.7147 107.366 69.6278 103.311C69.0206 102.886 68.2952 102.662 67.5539 102.67C66.7482 102.677 65.9658 102.941 65.3211 103.424C64.6765 103.907 64.2036 104.584 63.9717 105.356C63.7398 106.127 63.7612 106.953 64.0326 107.711C64.304 108.47 64.8112 109.122 65.4799 109.571C72.7835 114.475 81.3816 117.094 90.1789 117.094C98.9761 117.094 107.574 114.475 114.878 109.571Z" fill="#40A133"/>
<path d="M52.7913 37.7057C54.8739 37.7057 56.5622 36.0175 56.5622 33.9349C56.5622 31.8523 54.8739 30.1641 52.7913 30.1641C50.7088 30.1641 49.0205 31.8523 49.0205 33.9349C49.0205 36.0175 50.7088 37.7057 52.7913 37.7057Z" fill="#F0F7FC"/>
<path d="M67.8743 37.7057C69.9569 37.7057 71.6452 36.0175 71.6452 33.9349C71.6452 31.8523 69.9569 30.1641 67.8743 30.1641C65.7918 30.1641 64.1035 31.8523 64.1035 33.9349C64.1035 36.0175 65.7918 37.7057 67.8743 37.7057Z" fill="#F0F7FC"/>
<path d="M82.9583 37.7057C85.0409 37.7057 86.7292 36.0175 86.7292 33.9349C86.7292 31.8523 85.0409 30.1641 82.9583 30.1641C80.8758 30.1641 79.1875 31.8523 79.1875 33.9349C79.1875 36.0175 80.8758 37.7057 82.9583 37.7057Z" fill="#F0F7FC"/>
<defs>
<linearGradient id="paint0_linear_3_38781" x1="90.4993" y1="45.25" x2="90.4993" y2="22.625" gradientUnits="userSpaceOnUse">
<stop stop-color="#40A133"/>
<stop offset="1" stop-color="#91F384"/>
</linearGradient>
<linearGradient id="paint1_linear_3_38781" x1="90.4994" y1="158.375" x2="90.4994" y2="45.25" gradientUnits="userSpaceOnUse">
<stop stop-color="#40A133" stop-opacity="0.35"/>
<stop offset="1" stop-color="#E1FEDD"/>
</linearGradient>
<linearGradient id="paint2_linear_3_38781" x1="63.312" y1="109.354" x2="-5.24178" y2="109.354" gradientUnits="userSpaceOnUse">
<stop stop-color="#D3E6F5"/>
<stop offset="0.56" stop-color="#E6F1FA"/>
<stop offset="1" stop-color="#F0F7FC"/>
</linearGradient>
<linearGradient id="paint3_linear_3_38781" x1="55.8834" y1="60.3307" x2="24.1707" y2="60.3307" gradientUnits="userSpaceOnUse">
<stop stop-color="#FE9661"/>
<stop offset="1" stop-color="#FFB369"/>
</linearGradient>
<linearGradient id="paint4_linear_3_38781" x1="117.687" y1="109.357" x2="186.241" y2="109.357" gradientUnits="userSpaceOnUse">
<stop stop-color="#D3E6F5"/>
<stop offset="0.56" stop-color="#E6F1FA"/>
<stop offset="1" stop-color="#F0F7FC"/>
</linearGradient>
<linearGradient id="paint5_linear_3_38781" x1="125.116" y1="60.3333" x2="156.828" y2="60.3333" gradientUnits="userSpaceOnUse">
<stop stop-color="#FE9661"/>
<stop offset="1" stop-color="#FFB369"/>
</linearGradient>
</defs>
</svg>
